<?xml version="1.0" encoding="UTF-8" standalone="no"?>
<!-- Created with Inkscape (http://www.inkscape.org/) -->

<svg
   width="247.88165mm"
   height="68.716888mm"
   viewBox="0 0 247.88165 68.716888"
   version="1.1"
   id="svg5"
   xml:space="preserve"
   sodipodi:docname="drawing-1.svg"
   inkscape:version="1.2.2 (732a01da63, 2022-12-09)"
   xmlns:inkscape="http://www.inkscape.org/namespaces/inkscape"
   xmlns:sodipodi="http://sodipodi.sourceforge.net/DTD/sodipodi-0.dtd"
   xmlns="http://www.w3.org/2000/svg"
   xmlns:svg="http://www.w3.org/2000/svg"><sodipodi:namedview
     id="namedview7"
     pagecolor="#ffffff"
     bordercolor="#999999"
     borderopacity="1"
     inkscape:showpageshadow="0"
     inkscape:pageopacity="0"
     inkscape:pagecheckerboard="0"
     inkscape:deskcolor="#d1d1d1"
     inkscape:document-units="mm"
     showgrid="false"
     showguides="true"
     inkscape:zoom="0.7071068"
     inkscape:cx="-2843.2763"
     inkscape:cy="2131.2198"
     inkscape:window-width="1920"
     inkscape:window-height="1057"
     inkscape:window-x="-8"
     inkscape:window-y="-8"
     inkscape:window-maximized="1"
     inkscape:current-layer="layer1" /><defs
     id="defs2" /><g
     inkscape:label="Layer 1"
     inkscape:groupmode="layer"
     id="layer1"
     transform="translate(827.7618,-433.06279)"><path
       id="path890"
       style="fill:#ffffff;stroke:none;stroke-width:0.0522734"
       d="m -796.92776,452.28223 c -0.34145,-0.17481 -0.65748,-0.45361 -0.85258,-0.70831 -0.11457,-0.14965 -0.17348,-0.36938 -0.3213,-0.48857 -0.27994,-0.22574 -0.81372,-0.25601 -1.14646,-0.41882 -0.86761,-0.42467 -1.60804,-1.0002 -2.162,-1.7964 -0.19387,-0.27871 -0.57037,-0.77861 -0.51399,-1.13724 0.0545,-0.34683 0.51749,-0.72363 0.76794,-0.93933 1.01159,-0.87112 2.55708,-1.09699 3.84841,-0.95185 0.39352,0.0442 1.76247,0.44464 1.69138,-0.30489 -0.0415,-0.438 -0.51365,-0.46396 -0.85484,-0.5166 -0.86655,-0.1336 -1.7669,-0.17083 -2.63614,-0.034 -0.87011,0.13691 -1.75061,0.43122 -2.46272,0.9646 -0.26232,0.19652 -0.50875,0.42158 -0.72501,0.66819 -0.0905,0.10313 -0.19511,0.32143 -0.34345,0.3431 -0.19111,0.0278 -0.47764,-0.20936 -0.63305,-0.30431 -0.65245,-0.39829 -1.1868,-1.00584 -1.57979,-1.65447 -0.41453,-0.68419 -0.6533,-1.52075 -0.60544,-2.32251 0.0119,-0.20055 -0.005,-0.58449 0.16984,-0.72418 0.13438,-0.10761 0.39274,-0.0741 0.55415,-0.086 0.439,-0.0323 0.87466,-0.0986 1.30798,-0.17471 0.33585,-0.0589 1.19315,-0.46027 1.4932,-0.28702 0.15492,0.0894 0.16034,0.3578 0.17791,0.51263 0.0605,0.533 -0.17216,1.04894 -0.11948,1.55403 0.0354,0.34025 0.38101,0.50043 0.67507,0.33333 0.30419,-0.17287 0.33687,-0.74336 0.36801,-1.05225 0.1122,-1.11399 -0.29577,-2.24095 -0.89945,-3.16038 -0.19016,-0.28966 -0.48101,-0.86203 -0.87806,-0.8823 -0.34926,-0.0179 -0.55012,0.24449 -0.44433,0.57008 0.12489,0.3844 0.54052,0.81281 0.78691,1.13513 -0.62666,0.43876 -2.08864,0.6546 -2.84256,0.532 -0.15315,-1.33903 0.0611,-2.58088 1.08859,-3.53667 0.33453,-0.31117 0.85758,-0.45922 1.15429,-0.78222 0.35819,-0.38997 0.48937,-0.95774 0.88399,-1.36048 1.05896,-1.08071 2.78291,-1.38396 4.20632,-0.95811 0.76608,0.22918 0.43819,1.44127 0.37287,2.03252 -0.036,0.32555 0.0655,0.72259 0.47559,0.65749 0.45923,-0.0729 0.4527,-0.64076 0.49599,-1.00219 0.0562,-0.46944 -0.17093,-1.21521 5.6e-4,-1.62944 0.0946,-0.22881 0.41544,-0.42263 0.61571,-0.54976 2.99007,-1.89826 7.34731,0.0805 9.4721,2.43519 0.50365,0.55826 0.85927,1.18046 1.24299,1.81953 -0.89664,0.65099 -1.85598,0.90206 -2.56931,1.83649 -0.346,-0.41241 -0.56971,-0.91745 -0.91982,-1.33422 -0.86701,-1.03198 -2.03118,-1.80978 -3.33701,-2.16574 -0.71344,-0.19508 -1.46612,-0.29908 -2.20606,-0.25603 -0.37519,0.0218 -0.79277,0.23459 -0.56897,0.67726 0.14831,0.29333 0.50541,0.22129 0.77598,0.21836 0.61088,-0.007 1.25125,0.0905 1.83439,0.27299 1.57384,0.49275 2.75039,1.52414 3.54174,2.96081 0.22028,0.39995 0.48715,1.78462 1.02817,1.76301 0.20573,-0.008 0.40476,-0.1393 0.43025,-0.35377 0.0303,-0.25582 -0.15156,-0.49128 -0.11717,-0.74171 0.0716,-0.52075 0.79259,-1.07714 1.18783,-1.35628 0.33614,-0.23732 0.86574,-0.58194 1.2887,-0.58782 0.84125,-0.0118 1.97348,0.95789 2.47805,1.5586 0.15519,0.18473 0.46075,0.48216 0.4796,0.73449 0.017,0.22786 -0.33396,0.63356 -0.42046,0.86588 -0.17299,0.4642 -0.16003,0.92606 -0.16842,1.41177 -1.01024,-0.30837 -2.08269,-0.20014 -3.06552,0.16136 -0.3512,0.12916 -1.29344,0.52554 -0.69272,1.01612 0.19949,0.16291 0.49306,0.0349 0.69821,-0.0473 0.50778,-0.20337 1.00164,-0.36138 1.55209,-0.40002 0.51907,-0.0365 1.41652,0.0231 1.79562,0.44405 0.28797,0.31964 0.40237,0.80593 0.66031,1.15698 0.19477,0.26516 0.53095,0.51122 0.82284,0.1998 0.35327,-0.37687 -0.31081,-1.07661 -0.4781,-1.42437 -0.43084,-0.89526 -0.5327,-1.79423 -0.0277,-2.67021 1.88055,0.78896 3.63524,2.28164 3.55587,4.52763 -0.0247,0.70028 -0.21791,1.41389 -0.6298,1.99067 -0.10336,0.14476 -0.30365,0.47413 -0.49885,0.49253 -0.31257,0.0294 -0.97485,-0.61926 -1.2554,-0.78122 -1.07325,-0.61965 -2.16536,-1.14461 -3.3525,-1.51214 -0.40647,-0.1259 -1.39081,-0.50777 -1.71423,-0.085 -0.52831,0.69081 0.9521,0.82313 1.29219,0.92043 1.23208,0.35248 2.33661,0.93303 3.4395,1.56992 0.5904,0.34093 1.17778,0.57206 0.91629,1.31351 -0.29913,0.84834 -0.9162,1.54295 -1.70433,1.97365 -0.3197,0.17468 -0.70473,0.24512 -1.007,0.44461 -0.25073,0.16549 -0.42497,0.45266 -0.65507,0.64818 -0.48251,0.4099 -1.08685,0.68319 -1.70078,0.82339 -0.44322,0.10124 -0.8874,0.0358 -1.32725,0.10761 -0.18285,0.03 -0.4092,0.17202 -0.59034,0.0759 -0.33836,-0.17975 -0.59185,-0.88459 -0.74583,-1.2159 -0.65022,-1.39862 -0.8378,-2.82779 -0.45973,-4.32652 0.60259,0.41439 1.1948,0.7616 1.83011,1.11702 0.64913,0.36319 1.51302,0.78999 2.25374,0.90479 0.43515,0.0674 0.81098,-0.33611 0.48111,-0.72877 -0.1438,-0.17115 -0.4231,-0.20557 -0.62295,-0.27981 -0.46014,-0.17063 -0.92604,-0.34316 -1.36739,-0.55829 -1.42212,-0.69335 -2.87832,-1.61253 -3.68442,-3.02808 -0.39214,-0.68859 -0.36505,-1.41603 -0.65913,-2.10364 -0.0956,-0.22368 -0.32863,-0.31207 -0.55405,-0.21267 -0.29344,0.12937 -0.28344,0.47719 -0.25537,0.7451 0.0682,0.6551 0.28217,1.2633 0.58666,1.84454 0.21025,0.40129 0.46345,0.75812 0.74742,1.10996 0.12752,0.158 0.3805,0.33844 0.4393,0.53526 0.0696,0.23272 -0.14663,0.68167 -0.19422,0.9226 -0.1182,0.59771 -0.15333,1.20731 -0.0989,1.81418 0.12974,1.44605 0.87959,2.47558 1.33144,3.78673 -0.69127,0.0422 -1.36941,-0.0256 -2.02671,-0.25296 -0.1897,-0.0656 -0.52808,-0.14146 -0.65477,-0.30656 -0.16567,-0.21582 0.009,-0.72339 0.0203,-0.97695 0.0343,-0.76896 -0.0376,-1.54208 -0.20855,-2.29236 -0.14598,-0.64093 -0.43947,-1.28792 -0.80112,-1.83568 -0.17061,-0.2584 -0.52464,-0.54734 -0.61151,-0.84243 -0.0934,-0.31735 0.0373,-0.74932 0.0275,-1.08042 -0.0182,-0.6186 -0.14586,-1.22635 -0.33698,-1.81397 -0.20254,-0.62293 -0.7936,-1.23711 -0.83836,-1.88262 -0.0385,-0.55515 0.17527,-1.15509 0.60395,-1.52219 0.31116,-0.26647 1.17068,-0.47321 0.80399,-1.03409 -0.23947,-0.36629 -0.73286,-0.0943 -1.01204,0.0687 -0.9822,0.5735 -1.02469,1.32703 -1.3723,2.28611 -1.48287,-0.85613 -2.90558,-1.61367 -3.78036,-3.17562 -0.25306,-0.4519 -0.42798,-0.93224 -0.54979,-1.43438 -0.0582,-0.23993 -0.12712,-0.51945 -0.42329,-0.53755 -0.53456,-0.0327 -0.51435,0.45911 -0.42036,0.83257 0.20366,0.80846 0.53318,1.53982 1.00815,2.22492 0.69012,0.99547 1.73588,1.89276 2.80973,2.45159 0.47976,0.24962 1.22169,0.39253 1.62581,0.73886 0.75548,0.64737 1.24204,2.51734 0.90911,3.4436 -1.17527,-0.43312 -2.6642,0.13092 -3.69093,0.70592 -0.33899,0.18988 -1.39679,0.738 -0.80836,1.23296 0.28031,0.23586 0.65764,-0.0611 0.89489,-0.21738 0.70692,-0.46539 1.50854,-0.83132 2.35849,-0.9223 2.65921,-0.28468 3.32515,3.67833 2.73476,5.6134 -1.77669,0.10478 -2.87336,-0.30463 -4.35165,-1.24495 0.36724,-0.52466 1.04037,-0.81928 1.64781,-0.96279 0.29507,-0.0696 0.87077,-0.0498 0.96473,-0.42571 0.21871,-0.87517 -1.16075,-0.47033 -1.53519,-0.34335 -0.45411,0.15401 -0.90756,0.35146 -1.29228,0.64216 -0.20498,0.15485 -0.42437,0.46962 -0.70073,0.46653 -0.20265,-0.002 -0.4168,-0.0698 -0.62176,-0.1744 z m 18.29382,-9.92945 -1.30811,-0.87083 -0.80839,-0.37694 -1.61105,-1.91405 -1.69789,-1.03231 -0.69173,-1.31098 -1.25548,-1.58879 c 0.93103,-0.25777 2.12566,-0.005 3.01133,0.32531 2.62121,0.97792 5.41158,3.72171 4.36132,6.76859 z"
       inkscape:export-filename="black-horizontal.svg"
       inkscape:export-xdpi="96"
       inkscape:export-ydpi="96" /><path
       style="fill:#ffffff;stroke-width:0.0144348"
       d="m -818.82183,501.58256 c -1.43841,-1.08623 -2.48487,-1.95141 -3.64438,-3.01315 -0.36085,-0.33041 -1.37902,-1.34884 -1.69617,-1.6966 -1.47679,-1.61929 -2.4623,-3.08933 -3.03854,-4.5325 -0.49569,-1.24148 -0.65918,-2.41757 -0.50493,-3.63237 0.16529,-1.30175 0.7257,-2.41043 1.64153,-3.24754 1.03889,-0.94959 2.23365,-1.45687 3.80566,-1.61579 0.30947,-0.0312 1.02765,-0.0431 1.32936,-0.022 1.0086,0.0708 2.05176,0.33506 3.21804,0.81528 0.12651,0.0521 0.23175,0.093 0.23386,0.0909 0.002,-0.002 -2.11015,-2.81299 -4.69391,-6.24637 -2.58376,-3.43339 -4.69616,-6.24617 -4.69421,-6.25063 0.002,-0.004 0.101,-0.0951 0.22005,-0.20138 3.66417,-3.2712 5.79699,-6.33129 6.32807,-9.07929 0.1622,-0.83928 0.1807,-1.60637 0.0589,-2.43947 -0.28425,-1.94351 -1.39795,-4.30321 -3.27082,-6.93025 -0.35177,-0.49342 -0.8963,-1.21994 -1.14292,-1.52492 l -0.0496,-0.0614 1.87464,2.8e-4 1.87465,2.9e-4 5.26509,6.42269 5.26508,6.42269 -1.6e-4,0.17732 -1.8e-4,0.17733 -0.16302,0.19487 c -0.25341,0.3029 -0.76661,0.93635 -1.09344,1.34964 -3.29884,4.17157 -5.08368,7.41134 -5.39003,9.78377 -0.13222,1.02386 0.049,2.10904 0.57449,3.44056 0.90069,2.28221 2.72582,5.06639 5.62182,8.57595 0.14584,0.17675 0.26303,0.32654 0.26042,0.33288 -0.005,0.0122 -1.32241,1.87802 -1.34027,1.8982 -0.006,0.006 -0.12339,-0.0526 -0.26134,-0.13133 -0.66389,-0.37912 -1.40829,-0.74926 -2.00462,-0.99676 -2.10141,-0.87212 -3.90748,-1.01864 -4.99556,-0.40527 -0.28517,0.16076 -0.57722,0.42412 -0.76714,0.6918 -0.11384,0.16041 -0.27547,0.46898 -0.34809,0.66451 -0.36135,0.97278 -0.39435,2.39864 -0.0878,3.79353 0.38498,1.75178 1.35683,3.54793 2.85854,5.28307 0.12614,0.14575 0.23506,0.27283 0.24201,0.28237 0.0144,0.0196 -1.18311,1.82776 -1.2095,1.82619 -0.008,-4e-4 -0.13259,-0.0893 -0.27549,-0.19714 z"
       id="path894" /><ellipse
       style="fill:#ffffff;stroke-width:0.418987"
       id="ellipse896"
       cx="-821.10291"
       cy="441.51938"
       rx="6.0368915"
       ry="6.0753131" /><text
       xml:space="preserve"
       style="font-style:normal;font-variant:normal;font-weight:bold;font-stretch:normal;font-size:50.8px;font-family:'Bodoni MT';-inkscape-font-specification:'Bodoni MT Bold';text-align:center;text-anchor:middle;fill:#ffffff;stroke-width:0.529167"
       x="-663.17432"
       y="482.34116"
       id="text900"><tspan
         sodipodi:role="line"
         id="tspan898"
         style="font-style:normal;font-variant:normal;font-weight:bold;font-stretch:normal;font-family:Consolas;-inkscape-font-specification:'Consolas Bold';fill:#ffffff;stroke-width:0.529167"
         x="-663.17432"
         y="482.34116">Theory</tspan></text><path
       id="path910"
       style="fill:#ffffff;stroke:none;stroke-width:0.128089"
       d="m -793.04668,433.06297 c -0.97717,-0.002 -1.92632,0.22524 -2.76728,0.75913 -0.20027,0.12713 -0.52086,0.32103 -0.61546,0.54984 -0.17149,0.41423 0.0557,1.15991 -5.2e-4,1.62935 -0.0433,0.36143 -0.0369,0.92963 -0.49609,1.00253 -0.41009,0.0651 -0.51143,-0.33229 -0.47543,-0.65784 0.0653,-0.59125 0.39298,-1.80326 -0.3731,-2.03244 -1.42341,-0.42585 -3.14699,-0.12263 -4.20595,0.95808 -0.39461,0.40274 -0.52599,0.97067 -0.88418,1.36064 -0.29671,0.323 -0.81992,0.47121 -1.15445,0.78238 -1.02749,0.95579 -1.24146,2.19771 -1.08831,3.53674 0.75392,0.1226 2.21555,-0.0935 2.84221,-0.53227 -0.24639,-0.32232 -0.66163,-0.75041 -0.78652,-1.13481 -0.10579,-0.32559 0.0946,-0.58841 0.4439,-0.57051 0.39705,0.0203 0.68834,0.59297 0.8785,0.88263 0.60368,0.91943 1.01137,2.04603 0.89917,3.16002 -0.0311,0.30889 -0.0637,0.87978 -0.36793,1.05265 -0.29406,0.1671 -0.6395,0.007 -0.6749,-0.33332 -0.0527,-0.50509 0.17987,-1.02142 0.11937,-1.55442 -0.0176,-0.15483 -0.0228,-0.42323 -0.17776,-0.51263 -0.30005,-0.17325 -1.1576,0.22842 -1.49345,0.28732 -0.43332,0.0761 -0.86893,0.14236 -1.30793,0.17466 -0.16141,0.0119 -0.41959,-0.0218 -0.55397,0.0858 -0.17484,0.13969 -0.15812,0.52395 -0.17002,0.7245 -0.0479,0.80176 0.19112,1.63815 0.60565,2.32234 0.39299,0.64863 0.9273,1.25639 1.57975,1.65468 0.15541,0.0949 0.44192,0.33166 0.63303,0.30386 0.14834,-0.0217 0.25264,-0.23949 0.34314,-0.34262 0.21625,-0.24661 0.4627,-0.47166 0.72502,-0.66818 0.7121,-0.53338 1.59279,-0.82788 2.46289,-0.96479 0.86924,-0.13683 1.76947,-0.0995 2.63602,0.0341 0.34119,0.0526 0.81323,0.0783 0.85473,0.51625 0.0711,0.74953 -1.29785,0.34909 -1.69137,0.30489 -1.29133,-0.14514 -2.83676,0.0808 -3.84835,0.95188 -0.25045,0.2157 -0.71341,0.59265 -0.76791,0.93948 -0.0564,0.35863 0.32031,0.85869 0.51418,1.1374 0.55396,0.7962 1.29454,1.3716 2.16214,1.79627 0.33274,0.16281 0.86625,0.19284 1.14619,0.41858 0.14782,0.11919 0.20686,0.33921 0.32143,0.48886 0.19509,0.2547 0.51121,0.53367 0.85266,0.70848 0.20496,0.1046 0.41901,0.17215 0.62166,0.17415 0.27636,0.003 0.49576,-0.31179 0.70074,-0.46664 0.38472,-0.2907 0.8378,-0.48781 1.29191,-0.64182 0.37444,-0.12698 1.75401,-0.53204 1.5353,0.34313 -0.094,0.37591 -0.66973,0.35622 -0.9648,0.42582 -0.60743,0.14351 -1.2802,0.43807 -1.64744,0.96273 1.47829,0.94032 2.57498,1.34966 4.35167,1.24488 0.59039,-1.93506 -0.0755,-5.89777 -2.73471,-5.61309 -0.84995,0.091 -1.6516,0.45652 -2.35852,0.92191 -0.23725,0.15628 -0.61472,0.45341 -0.89503,0.21755 -0.58843,-0.49495 0.46923,-1.04312 0.80822,-1.233 1.02673,-0.57499 2.51546,-1.13901 3.69073,-0.7059 0.33293,-0.92625 -0.15351,-2.79634 -0.90899,-3.44371 -0.40412,-0.34633 -1.14598,-0.48884 -1.62574,-0.73846 -1.07385,-0.55883 -2.11953,-1.45658 -2.80965,-2.45205 -0.47497,-0.68509 -0.80455,-1.41621 -1.00821,-2.22467 -0.094,-0.37346 -0.11391,-0.8652 0.42065,-0.8325 0.29617,0.0181 0.36503,0.2975 0.42323,0.53743 0.12181,0.50214 0.29678,0.98264 0.54984,1.43454 0.87478,1.56195 2.29726,2.31939 3.78013,3.17552 0.34761,-0.95908 0.39033,-1.71267 1.37252,-2.28617 0.27918,-0.163 0.77236,-0.43502 1.01183,-0.0687 0.36669,0.56088 -0.49293,0.76758 -0.80409,1.03405 -0.42868,0.3671 -0.64259,0.96723 -0.60409,1.52238 0.0448,0.64551 0.63616,1.25965 0.8387,1.88258 0.19112,0.58762 0.31873,1.19524 0.33693,1.81384 0.01,0.3311 -0.12078,0.7632 -0.0274,1.08055 0.0869,0.29509 0.44072,0.58393 0.61133,0.84233 0.36165,0.54776 0.655,1.19462 0.80098,1.83555 0.17095,0.75028 0.24308,1.5234 0.20878,2.29236 -0.0113,0.25356 -0.18583,0.76138 -0.0202,0.9772 0.12669,0.1651 0.46504,0.24085 0.65474,0.30645 0.6573,0.22736 1.33548,0.29541 2.02675,0.25321 -0.45185,-1.31115 -1.20196,-2.3408 -1.3317,-3.78685 -0.0544,-0.60687 -0.0195,-1.21665 0.0987,-1.81436 0.0476,-0.24093 0.26391,-0.6897 0.19431,-0.92242 -0.0588,-0.19682 -0.31173,-0.37737 -0.43925,-0.53537 -0.28397,-0.35184 -0.537,-0.70872 -0.74724,-1.11001 -0.30449,-0.58124 -0.51833,-1.18923 -0.58653,-1.84433 -0.0281,-0.26791 -0.0382,-0.61581 0.25528,-0.74518 0.22542,-0.0994 0.45837,-0.0113 0.55397,0.21239 0.29408,0.68761 0.26674,1.41516 0.65888,2.10375 0.80609,1.41555 2.26241,2.33489 3.68452,3.02824 0.44135,0.21513 0.90722,0.38748 1.36736,0.55811 0.19985,0.0742 0.47942,0.10893 0.62322,0.28008 0.32987,0.39266 -0.046,0.79604 -0.48111,0.72864 -0.74072,-0.1148 -1.60499,-0.54167 -2.25412,-0.90485 -0.63531,-0.35542 -1.22728,-0.70234 -1.82987,-1.11673 -0.37806,1.49873 -0.19029,2.92773 0.45993,4.32635 0.15397,0.33131 0.40733,1.0362 0.74569,1.21594 0.18114,0.0961 0.40729,-0.046 0.59014,-0.076 0.43985,-0.0718 0.88435,-0.006 1.32757,-0.10749 0.61393,-0.1402 1.21816,-0.41382 1.70067,-0.82372 0.2301,-0.19552 0.40401,-0.48253 0.65474,-0.64802 0.30227,-0.19949 0.68747,-0.26974 1.00717,-0.44442 0.0297,-0.0162 0.0587,-0.0337 0.0879,-0.0506 v 37.79407 8.0207 c 0,0.87052 -0.48424,2.52087 0.11679,3.30058 0.16563,0.21491 0.70109,0.28028 1.2423,0.28628 0.0387,4.1e-4 0.0774,7.1e-4 0.11576,5.2e-4 v 5.2e-4 c 0.0385,0 0.0769,-3.7e-4 0.11524,-10e-4 0.36729,-0.007 0.71303,-0.0359 0.92087,-0.0594 1.16881,-0.13169 0.565,-2.18944 0.70849,-2.79725 0.67851,-2.8735 1.92852,-5.42732 4.52272,-7.81296 6.60482,-6.07391 16.46663,-10.90362 18.33428,-18.75079 0.40988,-1.72243 0.30808,-3.58375 0.0424,-5.31234 -0.32745,-2.13067 -1.44011,-4.33931 -2.50372,-6.35413 -1.04708,-1.9834 -2.11963,-3.95068 -3.54707,-5.83376 -0.55425,-0.73095 -1.11047,-1.709 -2.27015,-2.08307 l -0.15761,0.10438 c 2.11618,3.93562 5.07148,7.71441 6.09162,11.87525 1.56557,6.38465 -3.46207,13.41456 -11.60394,16.7659 -2.52791,1.04055 -5.80404,2.22693 -8.82065,2.40089 -0.59646,-3.12175 -0.15762,-6.4357 -0.15762,-9.5834 v -18.02164 c 0,-1.8486 0.1488,-3.64873 0.14935,-5.63066 -0.57897,-0.47293 -1.25274,-0.85749 -1.94149,-1.14515 -0.18172,-0.14269 -0.41892,-0.26231 -0.65732,-0.39998 -1.10289,-0.63689 -2.20751,-1.21745 -3.43958,-1.56993 -0.34009,-0.0973 -1.82022,-0.22954 -1.29191,-0.92035 0.32341,-0.42277 1.30763,-0.0412 1.7141,0.0847 1.18714,0.36753 2.279,0.8924 3.35225,1.51205 0.28055,0.16196 0.94317,0.81075 1.25574,0.78135 0.1952,-0.0184 0.39532,-0.34772 0.49868,-0.49248 0.41189,-0.57678 0.60523,-1.2903 0.62993,-1.99058 0.0794,-2.24598 -1.6753,-3.73893 -3.55585,-4.52789 -0.505,0.87598 -0.40345,1.77487 0.0274,2.67013 0.16729,0.34776 0.83179,1.04785 0.47852,1.42471 -0.29189,0.31142 -0.62844,0.0652 -0.82321,-0.19998 -0.25794,-0.35105 -0.37193,-0.8374 -0.6599,-1.15704 -0.3791,-0.42095 -1.27669,-0.4804 -1.79576,-0.4439 -0.55045,0.0386 -1.04458,0.19661 -1.55236,0.39998 -0.20515,0.0822 -0.49866,0.20993 -0.69815,0.047 -0.60072,-0.49058 0.34178,-0.8868 0.69298,-1.01596 0.98283,-0.3615 2.05521,-0.4696 3.06545,-0.16123 0.008,-0.48571 -0.005,-0.9476 0.16846,-1.4118 0.0865,-0.23232 0.43713,-0.63823 0.42013,-0.86609 -0.0189,-0.25233 -0.32436,-0.5496 -0.47955,-0.73433 -0.50457,-0.60071 -1.63664,-1.57036 -2.47789,-1.55856 -0.42296,0.006 -0.95267,0.35024 -1.28881,0.58756 -0.39524,0.27914 -1.11592,0.83576 -1.18752,1.35651 -0.0344,0.25043 0.14709,0.48574 0.11679,0.74156 -0.0255,0.21447 -0.22422,0.34598 -0.42995,0.35398 -0.54102,0.0216 -0.80808,-1.36325 -1.02836,-1.7632 -0.79135,-1.43667 -1.96807,-2.46779 -3.54191,-2.96054 -0.58314,-0.18249 -1.22311,-0.28037 -1.83399,-0.27337 -0.27057,0.003 -0.62787,0.0752 -0.77618,-0.21808 -0.2238,-0.44266 0.19377,-0.65567 0.56895,-0.67747 0.73994,-0.043 1.49263,0.0612 2.20607,0.25631 1.30583,0.35596 2.47026,1.13378 3.33727,2.16576 0.35011,0.41677 0.57384,0.92188 0.91984,1.33429 0.71333,-0.93443 1.67219,-1.18559 2.56883,-1.83658 -0.38372,-0.63907 -0.73917,-1.26127 -1.24282,-1.81953 -1.52719,-1.69243 -4.20781,-3.1906 -6.70501,-3.19464 z m 7.97264,2.09083 c -0.32496,-0.006 -0.64182,0.0244 -0.93276,0.1049 l 1.25573,1.58905 0.69143,1.31103 1.69809,1.03198 1.61127,1.9141 0.80822,0.37724 1.30793,0.87074 c 1.05026,-3.04687 -1.73976,-5.79066 -4.36097,-6.76857 -0.6089,-0.22709 -1.36404,-0.41738 -2.07894,-0.43047 z" /></g></svg>
