<?xml version="1.0" encoding="UTF-8" standalone="no"?>
<!-- Created with Inkscape (http://www.inkscape.org/) -->

<svg
   width="71.471191mm"
   height="68.716827mm"
   viewBox="0 0 71.471191 68.716827"
   version="1.1"
   id="svg5"
   xml:space="preserve"
   sodipodi:docname="drawing-1.svg"
   inkscape:version="1.2.2 (732a01da63, 2022-12-09)"
   xmlns:inkscape="http://www.inkscape.org/namespaces/inkscape"
   xmlns:sodipodi="http://sodipodi.sourceforge.net/DTD/sodipodi-0.dtd"
   xmlns="http://www.w3.org/2000/svg"
   xmlns:svg="http://www.w3.org/2000/svg"><sodipodi:namedview
     id="namedview7"
     pagecolor="#ffffff"
     bordercolor="#999999"
     borderopacity="1"
     inkscape:showpageshadow="0"
     inkscape:pageopacity="0"
     inkscape:pagecheckerboard="0"
     inkscape:deskcolor="#d1d1d1"
     inkscape:document-units="mm"
     showgrid="false"
     showguides="true"
     inkscape:zoom="0.7071068"
     inkscape:cx="-2843.2763"
     inkscape:cy="2131.2198"
     inkscape:window-width="1920"
     inkscape:window-height="1057"
     inkscape:window-x="-8"
     inkscape:window-y="-8"
     inkscape:window-maximized="1"
     inkscape:current-layer="layer1" /><defs
     id="defs2" /><g
     inkscape:label="Layer 1"
     inkscape:groupmode="layer"
     id="layer1"
     transform="translate(950.85952,-505.23323)"><path
       id="path1030"
       style="fill:#ffffff;stroke:none;stroke-width:0.0522734"
       d="m -916.14408,505.23324 c -0.97716,-0.002 -1.92632,0.22576 -2.76727,0.75965 -0.20027,0.12713 -0.52139,0.32102 -0.61599,0.54983 -0.17149,0.41423 0.0557,1.15992 -5.1e-4,1.62936 -0.0433,0.36143 -0.0364,0.92911 -0.49558,1.00201 -0.41009,0.0651 -0.51194,-0.33178 -0.47594,-0.65733 0.0653,-0.59125 0.39349,-1.80325 -0.37259,-2.03243 -1.4234,-0.42585 -3.1475,-0.12263 -4.20646,0.95808 -0.39462,0.40274 -0.52599,0.97016 -0.88418,1.36012 -0.29671,0.323 -0.81941,0.47122 -1.15394,0.78239 -1.02749,0.95579 -1.24197,2.1977 -1.08882,3.53673 0.75392,0.1226 2.21606,-0.0935 2.84272,-0.53227 -0.24639,-0.32232 -0.66214,-0.75041 -0.78703,-1.13481 -0.10579,-0.32559 0.0952,-0.58789 0.44442,-0.56999 0.39705,0.0203 0.68782,0.59246 0.87798,0.88212 0.60368,0.91942 1.01189,2.04654 0.89969,3.16053 -0.0311,0.30889 -0.0643,0.87926 -0.36846,1.05213 -0.29406,0.1671 -0.63949,0.007 -0.67489,-0.33332 -0.0527,-0.50508 0.17987,-1.02091 0.11937,-1.55391 -0.0176,-0.15483 -0.0229,-0.42323 -0.17777,-0.51263 -0.30005,-0.17325 -1.15759,0.22791 -1.49344,0.28681 -0.43332,0.0761 -0.86894,0.14236 -1.30793,0.17466 -0.16141,0.0119 -0.4196,-0.0213 -0.55398,0.0863 -0.17484,0.13969 -0.15811,0.52344 -0.17001,0.72399 -0.0479,0.80176 0.19112,1.63815 0.60565,2.32234 0.39299,0.64863 0.9273,1.25639 1.57974,1.65468 0.15541,0.095 0.44193,0.33217 0.63304,0.30437 0.14834,-0.0217 0.25315,-0.24 0.34365,-0.34313 0.21626,-0.24661 0.4627,-0.47165 0.72502,-0.66817 0.71211,-0.53338 1.59227,-0.82789 2.46238,-0.9648 0.86924,-0.13683 1.76998,-0.0995 2.63653,0.0341 0.34119,0.0526 0.81323,0.0788 0.85473,0.51677 0.0711,0.74953 -1.29785,0.34909 -1.69137,0.30489 -1.29133,-0.14514 -2.83675,0.0808 -3.84834,0.95188 -0.25045,0.2157 -0.71341,0.59213 -0.76791,0.93896 -0.0564,0.35863 0.31979,0.85869 0.51366,1.1374 0.55396,0.7962 1.29453,1.3716 2.16214,1.79627 0.33274,0.16281 0.86625,0.19336 1.14619,0.4191 0.14781,0.11919 0.20685,0.33869 0.32142,0.48834 0.1951,0.2547 0.51121,0.53367 0.85266,0.70848 0.20496,0.1046 0.41902,0.17267 0.62167,0.17467 0.27636,0.003 0.49575,-0.31179 0.70073,-0.46664 0.38472,-0.2907 0.83832,-0.48833 1.29243,-0.64234 0.37444,-0.12698 1.75402,-0.53152 1.53531,0.34365 -0.094,0.37591 -0.66973,0.3557 -0.9648,0.4253 -0.60744,0.14351 -1.28072,0.43807 -1.64796,0.96273 1.47829,0.94032 2.57498,1.35018 4.35167,1.2454 0.59039,-1.93507 -0.0755,-5.89829 -2.73472,-5.61361 -0.84995,0.091 -1.65159,0.45704 -2.35851,0.92243 -0.23725,0.15628 -0.61473,0.4529 -0.89504,0.21704 -0.58842,-0.49496 0.46923,-1.04312 0.80822,-1.233 1.02673,-0.575 2.51598,-1.13902 3.69125,-0.7059 0.33293,-0.92626 -0.15351,-2.79583 -0.90899,-3.4432 -0.40412,-0.34633 -1.14598,-0.48936 -1.62574,-0.73898 -1.07385,-0.55883 -2.12004,-1.45606 -2.81016,-2.45153 -0.47497,-0.6851 -0.80455,-1.41672 -1.00821,-2.22518 -0.094,-0.37346 -0.11391,-0.86521 0.42065,-0.83251 0.29617,0.0181 0.36503,0.2975 0.42323,0.53743 0.12181,0.50214 0.29677,0.98264 0.54983,1.43454 0.87478,1.56195 2.29727,2.31939 3.78014,3.17552 0.34761,-0.95908 0.39032,-1.71267 1.37252,-2.28617 0.27918,-0.163 0.77236,-0.43502 1.01183,-0.0687 0.36669,0.56088 -0.49241,0.7681 -0.80357,1.03457 -0.42868,0.36709 -0.6426,0.96672 -0.6041,1.52187 0.0448,0.64551 0.63565,1.25964 0.83819,1.88257 0.19112,0.58762 0.31873,1.19524 0.33693,1.81384 0.01,0.3311 -0.12079,0.76321 -0.0274,1.08056 0.0869,0.29509 0.44073,0.58392 0.61134,0.84232 0.36165,0.54776 0.65552,1.19514 0.8015,1.83606 0.17095,0.75028 0.24255,1.52341 0.20825,2.29237 -0.0113,0.25356 -0.18582,0.76087 -0.0202,0.97669 0.12669,0.1651 0.46504,0.24084 0.65474,0.30644 0.6573,0.22736 1.33548,0.29541 2.02675,0.25321 -0.45185,-1.31115 -1.20196,-2.3408 -1.3317,-3.78685 -0.0544,-0.60687 -0.019,-1.21665 0.0992,-1.81436 0.0476,-0.24093 0.2639,-0.6897 0.1943,-0.92242 -0.0588,-0.19682 -0.31173,-0.37737 -0.43925,-0.53537 -0.28397,-0.35184 -0.53751,-0.70872 -0.74776,-1.11001 -0.30449,-0.58124 -0.51833,-1.18923 -0.58652,-1.84433 -0.0281,-0.26791 -0.0382,-0.6158 0.25528,-0.74517 0.22542,-0.0994 0.45837,-0.0108 0.55397,0.2129 0.29408,0.68761 0.26725,1.41516 0.65939,2.10375 0.8061,1.41555 2.26241,2.33437 3.68453,3.02772 0.44135,0.21513 0.90722,0.38799 1.36736,0.55862 0.19985,0.0742 0.4789,0.10842 0.6227,0.27957 0.32987,0.39266 -0.046,0.79604 -0.48111,0.72864 -0.74072,-0.1148 -1.60448,-0.54166 -2.25361,-0.90485 -0.63531,-0.35542 -1.22779,-0.70234 -1.83038,-1.11673 -0.37807,1.49873 -0.1903,2.92773 0.45992,4.32635 0.15398,0.33131 0.40733,1.0362 0.74569,1.21595 0.18114,0.0961 0.40782,-0.046 0.59066,-0.076 0.43985,-0.0718 0.88384,-0.006 1.32706,-0.10748 0.61393,-0.1402 1.21816,-0.41331 1.70067,-0.82321 0.023,-0.0195 0.0452,-0.0409 0.0672,-0.062 v 36.48046 8.0207 c 0,0.87052 -0.48373,2.52086 0.1173,3.30057 0.16563,0.21491 0.70058,0.28081 1.24179,0.28681 0.0387,4.1e-4 0.0779,1.9e-4 0.11627,0 v 5.1e-4 c 0.0385,0 0.0764,-3.6e-4 0.11472,-10e-4 0.36729,-0.007 0.71303,-0.0359 0.92087,-0.0594 1.16881,-0.13169 0.56552,-2.18943 0.70901,-2.79724 0.67851,-2.8735 1.92852,-5.42681 4.52272,-7.81245 6.60482,-6.07391 16.46663,-10.90362 18.33428,-18.75079 0.40988,-1.72243 0.30757,-3.58427 0.0419,-5.31285 -0.32745,-2.13067 -1.4396,-4.33931 -2.50321,-6.35414 -1.04708,-1.9834 -2.11963,-3.95016 -3.54707,-5.83323 -0.55425,-0.73095 -1.11098,-1.70953 -2.27066,-2.0836 l -0.15762,0.10439 c 2.11618,3.93561 5.07148,7.71441 6.09162,11.87524 1.56557,6.38466 -3.46207,13.41457 -11.60394,16.7659 -2.52791,1.04055 -5.80352,2.22745 -8.82014,2.40141 -0.59645,-3.12175 -0.15761,-6.43622 -0.15761,-9.58391 v -18.02113 c 0,-1.84859 0.1488,-3.64873 0.14935,-5.63066 0.26149,-0.74145 -0.32634,-0.97268 -0.91674,-1.31361 -1.10289,-0.63689 -2.20699,-1.21745 -3.43907,-1.56993 -0.34009,-0.0973 -1.82074,-0.22955 -1.29243,-0.92036 0.32342,-0.42277 1.30764,-0.0412 1.71411,0.0847 1.18714,0.36753 2.27952,0.8924 3.35277,1.51205 0.28055,0.16196 0.94265,0.81075 1.25522,0.78135 0.1952,-0.0184 0.39532,-0.34772 0.49867,-0.49248 0.41189,-0.57678 0.60524,-1.2903 0.62994,-1.99058 0.0794,-2.24598 -1.67531,-3.73892 -3.55585,-4.52788 -0.505,0.87598 -0.40294,1.77537 0.0279,2.67063 0.16729,0.34776 0.83128,1.04734 0.47801,1.42421 -0.29189,0.31142 -0.62792,0.0652 -0.82269,-0.19999 -0.25794,-0.35105 -0.37246,-0.8374 -0.66043,-1.15704 -0.3791,-0.42095 -1.27668,-0.4804 -1.79575,-0.4439 -0.55045,0.0386 -1.04407,0.19661 -1.55185,0.39998 -0.20515,0.0822 -0.49865,0.21045 -0.69814,0.0475 -0.60072,-0.49058 0.34126,-0.88731 0.69246,-1.01647 0.98283,-0.3615 2.05521,-0.4696 3.06545,-0.16124 0.008,-0.4857 -0.005,-0.9476 0.16846,-1.4118 0.0865,-0.23232 0.43765,-0.63772 0.42065,-0.86558 -0.0189,-0.25233 -0.32437,-0.5501 -0.47956,-0.73483 -0.50457,-0.60071 -1.63715,-1.57037 -2.4784,-1.55857 -0.42296,0.006 -0.95216,0.35076 -1.28829,0.58808 -0.39524,0.27914 -1.11645,0.83524 -1.18805,1.35599 -0.0344,0.25043 0.14761,0.48626 0.11731,0.74208 -0.0255,0.21447 -0.22474,0.34546 -0.43047,0.35346 -0.54101,0.0216 -0.80756,-1.36273 -1.02784,-1.76268 -0.79135,-1.43667 -1.96806,-2.46831 -3.5419,-2.96106 -0.58314,-0.18249 -1.22364,-0.27985 -1.83452,-0.27285 -0.27057,0.003 -0.62787,0.0747 -0.77618,-0.21859 -0.2238,-0.44267 0.19377,-0.65516 0.56896,-0.67696 0.73994,-0.043 1.49263,0.0607 2.20607,0.25579 1.30583,0.35596 2.47025,1.13378 3.33726,2.16576 0.35011,0.41677 0.57384,0.92188 0.91984,1.33429 0.71333,-0.93443 1.67272,-1.18559 2.56936,-1.83658 -0.38372,-0.63907 -0.73917,-1.26127 -1.24282,-1.81953 -1.52719,-1.69243 -4.20782,-3.1906 -6.70502,-3.19464 z m 7.97212,2.09083 c -0.32495,-0.006 -0.64129,0.0249 -0.93224,0.10542 l 1.25522,1.58854 0.69195,1.31103 1.69809,1.03249 1.61075,1.9141 0.80822,0.37672 1.30845,0.87075 c 1.05026,-3.04688 -1.74029,-5.79066 -4.36149,-6.76858 -0.6089,-0.22709 -1.36404,-0.41738 -2.07895,-0.43047 z"
       inkscape:export-filename="black-no-words.svg"
       inkscape:export-xdpi="96"
       inkscape:export-ydpi="96" /><path
       style="fill:#ffffff;stroke-width:0.0144348"
       d="m -941.91954,573.75296 c -1.43841,-1.08623 -2.48487,-1.95141 -3.64438,-3.01315 -0.36085,-0.33041 -1.37902,-1.34884 -1.69617,-1.6966 -1.47679,-1.61929 -2.4623,-3.08933 -3.03854,-4.5325 -0.49569,-1.24148 -0.65918,-2.41757 -0.50493,-3.63237 0.16529,-1.30175 0.7257,-2.41043 1.64153,-3.24754 1.03889,-0.94959 2.23365,-1.45687 3.80566,-1.61579 0.30947,-0.0312 1.02765,-0.0431 1.32936,-0.022 1.0086,0.0708 2.05176,0.33506 3.21804,0.81528 0.12651,0.0521 0.23175,0.093 0.23386,0.0909 0.002,-0.002 -2.11015,-2.81299 -4.69391,-6.24637 -2.58376,-3.43339 -4.69616,-6.24617 -4.69421,-6.25063 0.002,-0.004 0.101,-0.0951 0.22005,-0.20138 3.66417,-3.2712 5.79699,-6.33129 6.32807,-9.07929 0.1622,-0.83928 0.1807,-1.60637 0.0589,-2.43947 -0.28425,-1.94351 -1.39795,-4.30321 -3.27082,-6.93025 -0.35177,-0.49342 -0.8963,-1.21994 -1.14292,-1.52492 l -0.0496,-0.0614 1.87464,2.8e-4 1.87465,2.9e-4 5.26509,6.42269 5.26508,6.42269 -1.6e-4,0.17732 -1.8e-4,0.17733 -0.16302,0.19487 c -0.25341,0.3029 -0.76661,0.93635 -1.09344,1.34964 -3.29884,4.17157 -5.08368,7.41134 -5.39003,9.78377 -0.13222,1.02386 0.049,2.10904 0.57449,3.44056 0.90069,2.28221 2.72582,5.06639 5.62182,8.57595 0.14584,0.17675 0.26303,0.32654 0.26042,0.33288 -0.005,0.0122 -1.32241,1.87802 -1.34027,1.8982 -0.006,0.006 -0.12339,-0.0526 -0.26134,-0.13133 -0.66389,-0.37912 -1.40829,-0.74926 -2.00462,-0.99676 -2.10141,-0.87212 -3.90748,-1.01864 -4.99556,-0.40527 -0.28517,0.16076 -0.57722,0.42412 -0.76714,0.6918 -0.11384,0.16041 -0.27547,0.46898 -0.34809,0.66451 -0.36135,0.97278 -0.39435,2.39864 -0.0878,3.79353 0.38498,1.75178 1.35683,3.54793 2.85854,5.28307 0.12614,0.14575 0.23506,0.27283 0.24201,0.28237 0.0144,0.0196 -1.18311,1.82776 -1.2095,1.82619 -0.008,-4e-4 -0.13259,-0.0893 -0.27549,-0.19714 z"
       id="path1034" /><ellipse
       style="fill:#ffffff;stroke-width:0.418987"
       id="ellipse1036"
       cx="-944.20062"
       cy="513.68976"
       rx="6.0368915"
       ry="6.0753131" /></g></svg>
