<?xml version="1.0" encoding="UTF-8" standalone="no"?>
<!-- Created with Inkscape (http://www.inkscape.org/) -->

<svg
   width="165.12482mm"
   height="118.58423mm"
   viewBox="0 0 165.12482 118.58423"
   version="1.1"
   id="svg5"
   xml:space="preserve"
   sodipodi:docname="drawing-1.svg"
   inkscape:version="1.2.2 (732a01da63, 2022-12-09)"
   xmlns:inkscape="http://www.inkscape.org/namespaces/inkscape"
   xmlns:sodipodi="http://sodipodi.sourceforge.net/DTD/sodipodi-0.dtd"
   xmlns="http://www.w3.org/2000/svg"
   xmlns:svg="http://www.w3.org/2000/svg"><sodipodi:namedview
     id="namedview7"
     pagecolor="#ffffff"
     bordercolor="#999999"
     borderopacity="1"
     inkscape:showpageshadow="0"
     inkscape:pageopacity="0"
     inkscape:pagecheckerboard="0"
     inkscape:deskcolor="#d1d1d1"
     inkscape:document-units="mm"
     showgrid="false"
     showguides="true"
     inkscape:zoom="0.7071068"
     inkscape:cx="-2843.2763"
     inkscape:cy="2131.2198"
     inkscape:window-width="1920"
     inkscape:window-height="1057"
     inkscape:window-x="-8"
     inkscape:window-y="-8"
     inkscape:window-maximized="1"
     inkscape:current-layer="layer1" /><defs
     id="defs2" /><g
     inkscape:label="Layer 1"
     inkscape:groupmode="layer"
     id="layer1"
     transform="translate(810.3373,-549.05778)"><path
       id="path902"
       style="fill:#ffffff;stroke:none;stroke-width:0.0522734"
       d="m -727.69832,568.2772 c -0.34145,-0.17481 -0.65748,-0.45361 -0.85258,-0.70831 -0.11457,-0.14965 -0.17348,-0.36938 -0.3213,-0.48857 -0.27994,-0.22574 -0.81372,-0.25601 -1.14646,-0.41882 -0.86761,-0.42467 -1.60804,-1.0002 -2.162,-1.7964 -0.19387,-0.27871 -0.57037,-0.77861 -0.51399,-1.13724 0.0545,-0.34683 0.51749,-0.72363 0.76794,-0.93933 1.01159,-0.87112 2.55708,-1.09699 3.84841,-0.95185 0.39352,0.0442 1.76247,0.44464 1.69138,-0.30489 -0.0415,-0.438 -0.51365,-0.46396 -0.85484,-0.5166 -0.86655,-0.1336 -1.7669,-0.17083 -2.63614,-0.034 -0.87011,0.13691 -1.75061,0.43122 -2.46272,0.9646 -0.26232,0.19652 -0.50875,0.42158 -0.72501,0.66819 -0.0905,0.10313 -0.19511,0.32143 -0.34345,0.3431 -0.19111,0.0278 -0.47764,-0.20936 -0.63305,-0.30431 -0.65245,-0.39829 -1.1868,-1.00584 -1.57979,-1.65447 -0.41453,-0.68419 -0.6533,-1.52075 -0.60544,-2.32251 0.0119,-0.20055 -0.005,-0.58449 0.16984,-0.72418 0.13438,-0.10761 0.39274,-0.0741 0.55415,-0.086 0.439,-0.0323 0.87466,-0.0986 1.30798,-0.17471 0.33585,-0.0589 1.19315,-0.46027 1.4932,-0.28702 0.15492,0.0894 0.16034,0.3578 0.17791,0.51263 0.0605,0.533 -0.17216,1.04894 -0.11948,1.55403 0.0354,0.34025 0.38101,0.50043 0.67507,0.33333 0.30419,-0.17287 0.33687,-0.74336 0.36801,-1.05225 0.1122,-1.11399 -0.29577,-2.24095 -0.89945,-3.16038 -0.19016,-0.28966 -0.48101,-0.86203 -0.87806,-0.8823 -0.34926,-0.0179 -0.55012,0.24449 -0.44433,0.57008 0.12489,0.3844 0.54052,0.81281 0.78691,1.13513 -0.62666,0.43876 -2.08864,0.6546 -2.84256,0.532 -0.15315,-1.33903 0.0611,-2.58088 1.08859,-3.53667 0.33453,-0.31117 0.85758,-0.45922 1.15429,-0.78222 0.35819,-0.38997 0.48937,-0.95774 0.88399,-1.36048 1.05896,-1.08071 2.78291,-1.38396 4.20632,-0.95811 0.76608,0.22918 0.43819,1.44127 0.37287,2.03252 -0.036,0.32555 0.0655,0.72259 0.47559,0.65749 0.45923,-0.0729 0.4527,-0.64076 0.49599,-1.00219 0.0562,-0.46944 -0.17093,-1.21521 5.6e-4,-1.62944 0.0946,-0.22881 0.41544,-0.42263 0.61571,-0.54976 2.99007,-1.89826 7.34731,0.0805 9.4721,2.43519 0.50365,0.55826 0.85927,1.18046 1.24299,1.81953 -0.89664,0.65099 -1.85598,0.90206 -2.56931,1.83649 -0.346,-0.41241 -0.56971,-0.91745 -0.91982,-1.33422 -0.86701,-1.03198 -2.03118,-1.80978 -3.33701,-2.16574 -0.71344,-0.19508 -1.46612,-0.29908 -2.20606,-0.25603 -0.37519,0.0218 -0.79277,0.23459 -0.56897,0.67726 0.14831,0.29333 0.50541,0.22129 0.77598,0.21836 0.61088,-0.007 1.25125,0.0905 1.83439,0.27299 1.57384,0.49275 2.75039,1.52414 3.54174,2.96081 0.22028,0.39995 0.48715,1.78462 1.02817,1.76301 0.20573,-0.008 0.40476,-0.1393 0.43025,-0.35377 0.0303,-0.25582 -0.15156,-0.49128 -0.11717,-0.74171 0.0716,-0.52075 0.79259,-1.07714 1.18783,-1.35628 0.33614,-0.23732 0.86574,-0.58194 1.2887,-0.58782 0.84125,-0.0118 1.97348,0.95789 2.47805,1.5586 0.15519,0.18473 0.46075,0.48216 0.4796,0.73449 0.017,0.22786 -0.33396,0.63356 -0.42046,0.86588 -0.17299,0.4642 -0.16003,0.92606 -0.16842,1.41177 -1.01024,-0.30837 -2.08269,-0.20014 -3.06552,0.16136 -0.3512,0.12916 -1.29344,0.52554 -0.69272,1.01612 0.19949,0.16291 0.49306,0.0349 0.69821,-0.0473 0.50778,-0.20337 1.00164,-0.36138 1.55209,-0.40002 0.51907,-0.0365 1.41652,0.0231 1.79562,0.44405 0.28797,0.31964 0.40237,0.80593 0.66031,1.15698 0.19477,0.26516 0.53095,0.51122 0.82284,0.1998 0.35327,-0.37687 -0.31081,-1.07661 -0.4781,-1.42437 -0.43084,-0.89526 -0.5327,-1.79423 -0.0277,-2.67021 1.88055,0.78896 3.63524,2.28164 3.55587,4.52763 -0.0247,0.70028 -0.21791,1.41389 -0.6298,1.99067 -0.10336,0.14476 -0.30365,0.47413 -0.49885,0.49253 -0.31257,0.0294 -0.97485,-0.61926 -1.2554,-0.78122 -1.07325,-0.61965 -2.16536,-1.14461 -3.3525,-1.51214 -0.40647,-0.1259 -1.39081,-0.50777 -1.71423,-0.085 -0.52831,0.69081 0.9521,0.82313 1.29219,0.92043 1.23208,0.35248 2.33661,0.93303 3.4395,1.56992 0.5904,0.34093 1.17778,0.57206 0.91629,1.31351 -0.29913,0.84834 -0.9162,1.54295 -1.70433,1.97365 -0.3197,0.17468 -0.70473,0.24512 -1.007,0.44461 -0.25073,0.16549 -0.42497,0.45266 -0.65507,0.64818 -0.48251,0.4099 -1.08685,0.68319 -1.70078,0.82339 -0.44322,0.10124 -0.8874,0.0358 -1.32725,0.10761 -0.18285,0.03 -0.4092,0.17202 -0.59034,0.0759 -0.33836,-0.17975 -0.59185,-0.88459 -0.74583,-1.2159 -0.65022,-1.39862 -0.8378,-2.82779 -0.45973,-4.32652 0.60259,0.41439 1.1948,0.7616 1.83011,1.11702 0.64913,0.36319 1.51302,0.78999 2.25374,0.90479 0.43515,0.0674 0.81098,-0.33611 0.48111,-0.72877 -0.1438,-0.17115 -0.4231,-0.20557 -0.62295,-0.27981 -0.46014,-0.17063 -0.92604,-0.34316 -1.36739,-0.55829 -1.42212,-0.69335 -2.87832,-1.61253 -3.68442,-3.02808 -0.39214,-0.68859 -0.36505,-1.41603 -0.65913,-2.10364 -0.0956,-0.22368 -0.32863,-0.31207 -0.55405,-0.21267 -0.29344,0.12937 -0.28344,0.47719 -0.25537,0.7451 0.0682,0.6551 0.28217,1.2633 0.58666,1.84454 0.21025,0.40129 0.46345,0.75812 0.74742,1.10996 0.12752,0.158 0.3805,0.33844 0.4393,0.53526 0.0696,0.23272 -0.14663,0.68167 -0.19422,0.9226 -0.1182,0.59771 -0.15333,1.20731 -0.0989,1.81418 0.12974,1.44605 0.87959,2.47558 1.33144,3.78673 -0.69127,0.0422 -1.36941,-0.0256 -2.02671,-0.25296 -0.1897,-0.0656 -0.52808,-0.14146 -0.65477,-0.30656 -0.16567,-0.21582 0.009,-0.72339 0.0203,-0.97695 0.0343,-0.76896 -0.0376,-1.54208 -0.20855,-2.29236 -0.14598,-0.64093 -0.43947,-1.28792 -0.80112,-1.83568 -0.17061,-0.2584 -0.52464,-0.54734 -0.61151,-0.84243 -0.0934,-0.31735 0.0373,-0.74932 0.0275,-1.08042 -0.0182,-0.6186 -0.14586,-1.22635 -0.33698,-1.81397 -0.20254,-0.62293 -0.7936,-1.23711 -0.83836,-1.88262 -0.0385,-0.55515 0.17527,-1.15509 0.60395,-1.52219 0.31116,-0.26647 1.17068,-0.47321 0.80399,-1.03409 -0.23947,-0.36629 -0.73286,-0.0943 -1.01204,0.0687 -0.9822,0.5735 -1.02469,1.32703 -1.3723,2.28611 -1.48287,-0.85613 -2.90558,-1.61367 -3.78036,-3.17562 -0.25306,-0.4519 -0.42798,-0.93224 -0.54979,-1.43438 -0.0582,-0.23993 -0.12712,-0.51945 -0.42329,-0.53755 -0.53456,-0.0327 -0.51435,0.45911 -0.42036,0.83257 0.20366,0.80846 0.53318,1.53982 1.00815,2.22492 0.69012,0.99547 1.73588,1.89276 2.80973,2.45159 0.47976,0.24962 1.22169,0.39253 1.62581,0.73886 0.75548,0.64737 1.24204,2.51734 0.90911,3.4436 -1.17527,-0.43312 -2.6642,0.13092 -3.69093,0.70592 -0.33899,0.18988 -1.39679,0.738 -0.80836,1.23296 0.28031,0.23586 0.65764,-0.0611 0.89489,-0.21738 0.70692,-0.46539 1.50854,-0.83132 2.35849,-0.9223 2.65921,-0.28468 3.32515,3.67833 2.73476,5.6134 -1.77669,0.10478 -2.87336,-0.30463 -4.35165,-1.24495 0.36724,-0.52466 1.04037,-0.81928 1.64781,-0.96279 0.29507,-0.0696 0.87077,-0.0498 0.96473,-0.42571 0.21871,-0.87517 -1.16075,-0.47033 -1.53519,-0.34335 -0.45411,0.15401 -0.90756,0.35146 -1.29228,0.64216 -0.20498,0.15485 -0.42437,0.46962 -0.70073,0.46653 -0.20265,-0.002 -0.4168,-0.0698 -0.62176,-0.1744 z m 18.29382,-9.92945 -1.30811,-0.87083 -0.80839,-0.37694 -1.61105,-1.91405 -1.69789,-1.03231 -0.69173,-1.31098 -1.25548,-1.58879 c 0.93103,-0.25777 2.12566,-0.005 3.01133,0.32531 2.62121,0.97792 5.41158,3.72171 4.36132,6.76859 z"
       inkscape:export-filename="black-box.svg"
       inkscape:export-xdpi="96"
       inkscape:export-ydpi="96" /><path
       id="path904"
       style="fill:#ffffff;stroke:none;stroke-width:0.128089"
       d="m -711.93774,617.54223 c -0.0384,1.9e-4 -0.0773,6e-5 -0.11601,-3.5e-4 -0.54121,-0.006 -1.07633,-0.0718 -1.24196,-0.28671 -0.60103,-0.77971 -0.11702,-2.42983 -0.11702,-3.30035 v -8.02098 -38.75193 l 0.002,-0.002 c 0.68071,-0.30914 1.21083,-0.74677 1.48772,-1.26614 0.14494,-0.27183 -0.31614,-0.62648 -0.5301,-0.76633 0.82441,0.29739 1.64934,0.73761 2.33953,1.3014 -5.5e-4,1.98193 -0.14926,3.78205 -0.14926,5.63065 v 18.02141 c 0,3.1477 -0.43877,6.46186 0.15769,9.58361 3.01662,-0.17396 6.29246,-1.36058 8.82037,-2.40113 8.14188,-3.35134 13.16941,-10.38143 11.60384,-16.76609 -1.02014,-4.16084 -3.97552,-7.93959 -6.0917,-11.87521 l 0.15767,-0.1043 c 1.15968,0.37407 1.7161,1.35242 2.27035,2.08337 1.42744,1.88308 2.50006,3.84993 3.54714,5.83333 1.06361,2.01483 2.176,4.22375 2.50345,6.35442 0.26571,1.72859 0.36778,3.59012 -0.0421,5.31255 -1.86765,7.84718 -11.72939,12.67683 -18.33422,18.75075 -2.5942,2.38564 -3.84425,4.93927 -4.52277,7.81277 -0.14349,0.60781 0.46001,2.66532 -0.7088,2.79701 -0.20784,0.0235 -0.5535,0.0529 -0.92079,0.0597 -0.0383,6.7e-4 -0.0765,9.4e-4 -0.11499,9.4e-4 z"
       sodipodi:nodetypes="scsscccsccsscccccccccscssss" /><path
       style="fill:#ffffff;stroke-width:0.0144348"
       d="m -749.59239,617.57753 c -1.43841,-1.08623 -2.48487,-1.95141 -3.64438,-3.01315 -0.36085,-0.33041 -1.37902,-1.34884 -1.69617,-1.6966 -1.47679,-1.61929 -2.4623,-3.08933 -3.03854,-4.5325 -0.49569,-1.24148 -0.65918,-2.41757 -0.50493,-3.63237 0.16529,-1.30175 0.7257,-2.41043 1.64153,-3.24754 1.03889,-0.94959 2.23365,-1.45687 3.80566,-1.61579 0.30947,-0.0312 1.02765,-0.0431 1.32936,-0.022 1.0086,0.0708 2.05176,0.33506 3.21804,0.81528 0.12651,0.0521 0.23175,0.093 0.23386,0.0909 0.002,-0.002 -2.11015,-2.81299 -4.69391,-6.24637 -2.58376,-3.43339 -4.69616,-6.24617 -4.69421,-6.25063 0.002,-0.004 0.101,-0.0951 0.22005,-0.20138 3.66417,-3.2712 5.79699,-6.33129 6.32807,-9.07929 0.1622,-0.83928 0.1807,-1.60637 0.0589,-2.43947 -0.28425,-1.94351 -1.39795,-4.30321 -3.27082,-6.93025 -0.35177,-0.49342 -0.8963,-1.21994 -1.14292,-1.52492 l -0.0496,-0.0614 1.87464,2.8e-4 1.87465,2.9e-4 5.26509,6.42269 5.26508,6.42269 -1.6e-4,0.17732 -1.8e-4,0.17733 -0.16302,0.19487 c -0.25341,0.3029 -0.76661,0.93635 -1.09344,1.34964 -3.29884,4.17157 -5.08368,7.41134 -5.39003,9.78377 -0.13222,1.02386 0.049,2.10904 0.57449,3.44056 0.90069,2.28221 2.72582,5.06639 5.62182,8.57595 0.14584,0.17675 0.26303,0.32654 0.26042,0.33288 -0.005,0.0122 -1.32241,1.87802 -1.34027,1.8982 -0.006,0.006 -0.12339,-0.0526 -0.26134,-0.13133 -0.66389,-0.37912 -1.40829,-0.74926 -2.00462,-0.99676 -2.10141,-0.87212 -3.90748,-1.01864 -4.99556,-0.40527 -0.28517,0.16076 -0.57722,0.42412 -0.76714,0.6918 -0.11384,0.16041 -0.27547,0.46898 -0.34809,0.66451 -0.36135,0.97278 -0.39435,2.39864 -0.0878,3.79353 0.38498,1.75178 1.35683,3.54793 2.85854,5.28307 0.12614,0.14575 0.23506,0.27283 0.24201,0.28237 0.0144,0.0196 -1.18311,1.82776 -1.2095,1.82619 -0.008,-4e-4 -0.13259,-0.0893 -0.27549,-0.19714 z"
       id="path906" /><ellipse
       style="fill:#ffffff;stroke-width:0.418987"
       id="ellipse908"
       cx="-751.87347"
       cy="557.51434"
       rx="6.0368915"
       ry="6.0753131" /><text
       xml:space="preserve"
       style="font-style:normal;font-variant:normal;font-weight:bold;font-stretch:normal;font-size:50.8px;font-family:'Bodoni MT';-inkscape-font-specification:'Bodoni MT Bold';text-align:center;text-anchor:middle;fill:#ffffff;stroke-width:0.529167"
       x="-728.50665"
       y="657.22406"
       id="text900-8"><tspan
         sodipodi:role="line"
         id="tspan898-1"
         style="font-style:normal;font-variant:normal;font-weight:bold;font-stretch:normal;font-family:Consolas;-inkscape-font-specification:'Consolas Bold';fill:#ffffff;stroke-width:0.529167"
         x="-728.50665"
         y="657.22406">Theory</tspan></text></g></svg>
